<mxfile host="app.diagrams.net" agent="Mozilla/5.0 (Windows NT 10.0; Win64; x64) AppleWebKit/537.36 (KHTML, like Gecko) Chrome/137.0.0.0 Safari/537.36 Edg/137.0.0.0" version="27.1.3">
  <diagram name="第 1 页" id="DF35kKNHORPSfNY7rUzX">
    <mxGraphModel dx="1016" dy="551" grid="0" gridSize="10" guides="1" tooltips="1" connect="1" arrows="1" fold="1" page="0" pageScale="1" pageWidth="1169" pageHeight="827" math="0" shadow="0">
      <root>
        <mxCell id="0" />
        <mxCell id="1" parent="0" />
        <mxCell id="SpjaAecNoGV0xSyJZOEl-1" value="&lt;font style=&quot;font-size: 15px;&quot;&gt;数据流与模型参数传输通道&lt;/font&gt;" style="rounded=0;whiteSpace=wrap;html=1;dashed=1;strokeWidth=2;fillColor=none;" parent="1" vertex="1">
          <mxGeometry x="210" y="450" width="200" height="40" as="geometry" />
        </mxCell>
        <mxCell id="SpjaAecNoGV0xSyJZOEl-2" value="" style="strokeWidth=2;html=1;shape=mxgraph.flowchart.annotation_2;align=left;labelPosition=right;pointerEvents=1;direction=north;" parent="1" vertex="1">
          <mxGeometry x="130" y="431" width="360" height="19" as="geometry" />
        </mxCell>
        <mxCell id="SpjaAecNoGV0xSyJZOEl-5" value="" style="endArrow=classic;html=1;rounded=0;fontSize=12;startSize=8;endSize=8;curved=1;strokeWidth=2;dashed=1;" parent="1" edge="1">
          <mxGeometry width="50" height="50" relative="1" as="geometry">
            <mxPoint x="130" y="431" as="sourcePoint" />
            <mxPoint x="130" y="390" as="targetPoint" />
          </mxGeometry>
        </mxCell>
        <mxCell id="SpjaAecNoGV0xSyJZOEl-6" value="" style="endArrow=classic;html=1;rounded=0;fontSize=12;startSize=8;endSize=8;curved=1;strokeWidth=2;exitX=0.523;exitY=0.5;exitDx=0;exitDy=0;exitPerimeter=0;dashed=1;entryX=3.158;entryY=0.5;entryDx=0;entryDy=0;entryPerimeter=0;" parent="1" edge="1">
          <mxGeometry width="50" height="50" relative="1" as="geometry">
            <mxPoint x="310" y="438.063" as="sourcePoint" />
            <mxPoint x="310" y="387.99799999999993" as="targetPoint" />
          </mxGeometry>
        </mxCell>
        <mxCell id="SpjaAecNoGV0xSyJZOEl-7" value="" style="endArrow=classic;html=1;rounded=0;fontSize=12;startSize=8;endSize=8;curved=1;strokeWidth=2;entryX=3.158;entryY=0.5;entryDx=0;entryDy=0;entryPerimeter=0;exitX=0.523;exitY=0.5;exitDx=0;exitDy=0;exitPerimeter=0;dashed=1;" parent="1" edge="1">
          <mxGeometry width="50" height="50" relative="1" as="geometry">
            <mxPoint x="490" y="439.00200000000007" as="sourcePoint" />
            <mxPoint x="490.05" y="387" as="targetPoint" />
          </mxGeometry>
        </mxCell>
        <mxCell id="SpjaAecNoGV0xSyJZOEl-8" value="&lt;font style=&quot;font-size: 15px;&quot;&gt;云端层&lt;/font&gt;" style="rounded=0;whiteSpace=wrap;html=1;fillColor=none;" parent="1" vertex="1">
          <mxGeometry x="90" y="230" width="80" height="40" as="geometry" />
        </mxCell>
        <mxCell id="SpjaAecNoGV0xSyJZOEl-9" style="edgeStyle=none;curved=1;rounded=0;orthogonalLoop=1;jettySize=auto;html=1;exitX=0.5;exitY=0;exitDx=0;exitDy=0;fontSize=12;startSize=8;endSize=8;" parent="1" source="SpjaAecNoGV0xSyJZOEl-8" target="SpjaAecNoGV0xSyJZOEl-8" edge="1">
          <mxGeometry relative="1" as="geometry" />
        </mxCell>
        <mxCell id="SpjaAecNoGV0xSyJZOEl-10" value="&lt;div style=&quot;line-height: 150%;&quot;&gt;&lt;font style=&quot;font-size: 15px; line-height: 150%;&quot;&gt;深度预测模型&lt;/font&gt;&lt;div&gt;&lt;font style=&quot;font-size: 15px; line-height: 150%;&quot;&gt;全局调度系统&lt;/font&gt;&lt;/div&gt;&lt;div&gt;&lt;font style=&quot;font-size: 15px; line-height: 150%;&quot;&gt;模型训练优化&lt;/font&gt;&lt;/div&gt;&lt;div&gt;&lt;font style=&quot;font-size: 15px; line-height: 150%;&quot;&gt;数据存储管理&lt;/font&gt;&lt;/div&gt;&lt;/div&gt;" style="rounded=0;whiteSpace=wrap;html=1;" parent="1" vertex="1">
          <mxGeometry x="70" y="280" width="120" height="100" as="geometry" />
        </mxCell>
        <mxCell id="SpjaAecNoGV0xSyJZOEl-12" value="&lt;font style=&quot;font-size: 15px;&quot;&gt;边缘层&lt;/font&gt;" style="rounded=0;whiteSpace=wrap;html=1;fillColor=none;" parent="1" vertex="1">
          <mxGeometry x="270" y="230" width="80" height="40" as="geometry" />
        </mxCell>
        <mxCell id="SpjaAecNoGV0xSyJZOEl-13" value="&lt;div style=&quot;line-height: 150%;&quot;&gt;&lt;div&gt;&lt;font style=&quot;font-size: 15px; line-height: 150%;&quot;&gt;数据预处理&amp;nbsp;&lt;/font&gt;&lt;/div&gt;&lt;div&gt;&lt;span style=&quot;font-size: 15px; line-height: 150%;&quot;&gt;轻量级预测&lt;/span&gt;&lt;/div&gt;&lt;div&gt;&lt;span style=&quot;background-color: transparent; color: light-dark(rgb(0, 0, 0), rgb(255, 255, 255)); font-size: 15px; line-height: 150%;&quot;&gt;本地决策&lt;/span&gt;&lt;/div&gt;&lt;div&gt;&lt;span style=&quot;font-size: 15px; background-color: transparent; color: light-dark(rgb(0, 0, 0), rgb(255, 255, 255)); line-height: 150%;&quot;&gt;数据缓存&lt;/span&gt;&lt;/div&gt;&lt;/div&gt;" style="rounded=0;whiteSpace=wrap;html=1;" parent="1" vertex="1">
          <mxGeometry x="255" y="280" width="110" height="100" as="geometry" />
        </mxCell>
        <mxCell id="SpjaAecNoGV0xSyJZOEl-14" value="&lt;font style=&quot;font-size: 15px;&quot;&gt;终端层&lt;/font&gt;" style="rounded=0;whiteSpace=wrap;html=1;fillColor=none;" parent="1" vertex="1">
          <mxGeometry x="445" y="230" width="80" height="40" as="geometry" />
        </mxCell>
        <mxCell id="SpjaAecNoGV0xSyJZOEl-15" value="&lt;div style=&quot;line-height: 150%;&quot;&gt;&lt;div&gt;&lt;font style=&quot;font-size: 15px; line-height: 150%;&quot;&gt;交通感知设备&lt;/font&gt;&lt;/div&gt;&lt;div&gt;&lt;font style=&quot;font-size: 15px; line-height: 150%;&quot;&gt;视频监控&lt;/font&gt;&lt;/div&gt;&lt;div&gt;&lt;font style=&quot;font-size: 15px; line-height: 150%;&quot;&gt;地磁传感器&lt;/font&gt;&lt;/div&gt;&lt;div&gt;&lt;font style=&quot;font-size: 15px; line-height: 150%;&quot;&gt;车联网终端&lt;/font&gt;&lt;/div&gt;&lt;/div&gt;" style="rounded=0;whiteSpace=wrap;html=1;" parent="1" vertex="1">
          <mxGeometry x="430" y="280" width="110" height="100" as="geometry" />
        </mxCell>
        <mxCell id="SpjaAecNoGV0xSyJZOEl-20" value="" style="rounded=0;whiteSpace=wrap;html=1;fillColor=none;dashed=1;dashPattern=1 1;strokeWidth=2;" parent="1" vertex="1">
          <mxGeometry x="60" y="220" width="140" height="170" as="geometry" />
        </mxCell>
        <mxCell id="SpjaAecNoGV0xSyJZOEl-21" value="" style="rounded=0;whiteSpace=wrap;html=1;fillColor=none;dashed=1;dashPattern=1 1;strokeWidth=2;glass=0;" parent="1" vertex="1">
          <mxGeometry x="240" y="220" width="140" height="170" as="geometry" />
        </mxCell>
        <mxCell id="SpjaAecNoGV0xSyJZOEl-22" value="" style="rounded=0;whiteSpace=wrap;html=1;fillColor=none;dashed=1;dashPattern=1 1;strokeWidth=2;" parent="1" vertex="1">
          <mxGeometry x="417.5" y="220" width="135" height="170" as="geometry" />
        </mxCell>
        <mxCell id="sg6L_MZa9gXwDMddU_bD-1" value="" style="endArrow=classic;html=1;rounded=0;fontSize=12;startSize=8;endSize=8;curved=1;entryX=1;entryY=0.175;entryDx=0;entryDy=0;entryPerimeter=0;exitX=0;exitY=0.177;exitDx=0;exitDy=0;exitPerimeter=0;strokeWidth=2;" edge="1" parent="1" source="SpjaAecNoGV0xSyJZOEl-22" target="SpjaAecNoGV0xSyJZOEl-21">
          <mxGeometry width="50" height="50" relative="1" as="geometry">
            <mxPoint x="417.495" y="249.15" as="sourcePoint" />
            <mxPoint x="380.19000000000005" y="250.85" as="targetPoint" />
          </mxGeometry>
        </mxCell>
        <mxCell id="sg6L_MZa9gXwDMddU_bD-2" value="" style="endArrow=classic;html=1;rounded=0;fontSize=12;startSize=8;endSize=8;curved=1;exitX=1;exitY=0.75;exitDx=0;exitDy=0;entryX=0;entryY=0.75;entryDx=0;entryDy=0;strokeWidth=2;" edge="1" parent="1">
          <mxGeometry width="50" height="50" relative="1" as="geometry">
            <mxPoint x="380" y="350.00000000000006" as="sourcePoint" />
            <mxPoint x="417.5" y="350.00000000000006" as="targetPoint" />
          </mxGeometry>
        </mxCell>
        <mxCell id="sg6L_MZa9gXwDMddU_bD-3" value="" style="endArrow=classic;html=1;rounded=0;fontSize=12;startSize=8;endSize=8;curved=1;entryX=1;entryY=0.176;entryDx=0;entryDy=0;entryPerimeter=0;exitX=-0.001;exitY=0.177;exitDx=0;exitDy=0;exitPerimeter=0;strokeWidth=2;" edge="1" parent="1" source="SpjaAecNoGV0xSyJZOEl-21" target="SpjaAecNoGV0xSyJZOEl-20">
          <mxGeometry width="50" height="50" relative="1" as="geometry">
            <mxPoint x="237.495" y="249.57" as="sourcePoint" />
            <mxPoint x="200" y="250.42" as="targetPoint" />
          </mxGeometry>
        </mxCell>
        <mxCell id="sg6L_MZa9gXwDMddU_bD-4" value="" style="endArrow=classic;html=1;rounded=0;fontSize=12;startSize=8;endSize=8;curved=1;exitX=1;exitY=0.75;exitDx=0;exitDy=0;entryX=0;entryY=0.75;entryDx=0;entryDy=0;strokeWidth=2;" edge="1" parent="1">
          <mxGeometry width="50" height="50" relative="1" as="geometry">
            <mxPoint x="200" y="350" as="sourcePoint" />
            <mxPoint x="237.5" y="350" as="targetPoint" />
          </mxGeometry>
        </mxCell>
        <mxCell id="sg6L_MZa9gXwDMddU_bD-5" value="云" style="ellipse;shape=cloud;whiteSpace=wrap;html=1;rounded=1;strokeWidth=2;" vertex="1" parent="1">
          <mxGeometry x="360" y="550" width="263.39" height="61" as="geometry" />
        </mxCell>
        <mxCell id="sg6L_MZa9gXwDMddU_bD-6" value="边缘计算节点(边)" style="rounded=1;whiteSpace=wrap;html=1;strokeWidth=2;" vertex="1" parent="1">
          <mxGeometry x="119" y="825" width="110" height="30" as="geometry" />
        </mxCell>
        <mxCell id="sg6L_MZa9gXwDMddU_bD-7" value="" style="edgeStyle=none;curved=1;rounded=1;orthogonalLoop=1;jettySize=auto;html=1;fontSize=12;startSize=8;endSize=8;strokeWidth=2;" edge="1" parent="1">
          <mxGeometry relative="1" as="geometry">
            <mxPoint x="433.0899999999999" y="641" as="sourcePoint" />
            <mxPoint x="433" y="601" as="targetPoint" />
          </mxGeometry>
        </mxCell>
        <mxCell id="sg6L_MZa9gXwDMddU_bD-8" value="数据上传" style="rounded=1;whiteSpace=wrap;html=1;strokeWidth=2;" vertex="1" parent="1">
          <mxGeometry x="398.39" y="641" width="70" height="30" as="geometry" />
        </mxCell>
        <mxCell id="sg6L_MZa9gXwDMddU_bD-9" value="模型下发 微服务下发" style="whiteSpace=wrap;html=1;rounded=1;strokeWidth=2;" vertex="1" parent="1">
          <mxGeometry x="484" y="641" width="120" height="30" as="geometry" />
        </mxCell>
        <mxCell id="sg6L_MZa9gXwDMddU_bD-10" value="" style="rounded=1;whiteSpace=wrap;html=1;fillColor=none;dashed=1;strokeWidth=2;" vertex="1" parent="1">
          <mxGeometry x="110" y="971.63" width="389" height="81.25" as="geometry" />
        </mxCell>
        <mxCell id="sg6L_MZa9gXwDMddU_bD-11" value="" style="edgeStyle=none;curved=1;rounded=1;orthogonalLoop=1;jettySize=auto;html=1;fontSize=12;startSize=8;endSize=8;strokeWidth=2;" edge="1" parent="1">
          <mxGeometry relative="1" as="geometry">
            <mxPoint x="199.0000000000001" y="1012.0151724137932" as="sourcePoint" />
            <mxPoint x="244" y="1011.6272413793104" as="targetPoint" />
          </mxGeometry>
        </mxCell>
        <mxCell id="sg6L_MZa9gXwDMddU_bD-12" value="终端设备(端)" style="rounded=1;whiteSpace=wrap;html=1;strokeWidth=2;" vertex="1" parent="1">
          <mxGeometry x="119" y="997.25" width="80" height="30" as="geometry" />
        </mxCell>
        <mxCell id="sg6L_MZa9gXwDMddU_bD-13" value="数据采集(交通流量、道路事件、气象等多源数据)" style="rounded=1;whiteSpace=wrap;html=1;strokeWidth=2;" vertex="1" parent="1">
          <mxGeometry x="241.51999999999998" y="986" width="120" height="52.5" as="geometry" />
        </mxCell>
        <mxCell id="sg6L_MZa9gXwDMddU_bD-14" value="执行决策(交通控制、信息发布等)" style="rounded=1;whiteSpace=wrap;html=1;strokeWidth=2;" vertex="1" parent="1">
          <mxGeometry x="378.39" y="991" width="110" height="42.5" as="geometry" />
        </mxCell>
        <mxCell id="sg6L_MZa9gXwDMddU_bD-15" value="数据初步清洗" style="rounded=1;whiteSpace=wrap;html=1;strokeWidth=2;" vertex="1" parent="1">
          <mxGeometry x="259.64" y="921" width="83.75" height="20" as="geometry" />
        </mxCell>
        <mxCell id="sg6L_MZa9gXwDMddU_bD-16" value="实时异常检测" style="rounded=1;whiteSpace=wrap;html=1;strokeWidth=2;" vertex="1" parent="1">
          <mxGeometry x="259.01" y="871" width="83.75" height="20" as="geometry" />
        </mxCell>
        <mxCell id="sg6L_MZa9gXwDMddU_bD-17" value="" style="edgeStyle=none;curved=1;rounded=1;orthogonalLoop=1;jettySize=auto;html=1;fontSize=12;startSize=8;endSize=8;strokeWidth=2;" edge="1" parent="1">
          <mxGeometry relative="1" as="geometry">
            <mxPoint x="298.85999999999996" y="811" as="sourcePoint" />
            <mxPoint x="298.85999999999996" y="787.25" as="targetPoint" />
          </mxGeometry>
        </mxCell>
        <mxCell id="sg6L_MZa9gXwDMddU_bD-18" value="特征提取&lt;div&gt;(关键信息提取)&lt;/div&gt;" style="rounded=1;whiteSpace=wrap;html=1;strokeWidth=2;" vertex="1" parent="1">
          <mxGeometry x="259" y="811" width="90" height="33.25" as="geometry" />
        </mxCell>
        <mxCell id="sg6L_MZa9gXwDMddU_bD-19" value="" style="edgeStyle=none;curved=1;rounded=1;orthogonalLoop=1;jettySize=auto;html=1;fontSize=12;startSize=8;endSize=8;exitX=0.618;exitY=1.057;exitDx=0;exitDy=0;exitPerimeter=0;strokeWidth=2;entryX=0.559;entryY=-0.024;entryDx=0;entryDy=0;entryPerimeter=0;" edge="1" parent="1" source="sg6L_MZa9gXwDMddU_bD-20" target="sg6L_MZa9gXwDMddU_bD-30">
          <mxGeometry relative="1" as="geometry">
            <mxPoint x="422.5405800000001" y="812.4799999999999" as="sourcePoint" />
            <mxPoint x="422.19000000000005" y="871" as="targetPoint" />
          </mxGeometry>
        </mxCell>
        <mxCell id="sg6L_MZa9gXwDMddU_bD-20" value="实时性强的数据&lt;div&gt;(如异常数据)&lt;/div&gt;" style="rounded=1;whiteSpace=wrap;html=1;strokeWidth=2;" vertex="1" parent="1">
          <mxGeometry x="368.39" y="771" width="97.51" height="40" as="geometry" />
        </mxCell>
        <mxCell id="sg6L_MZa9gXwDMddU_bD-21" value="" style="edgeStyle=none;curved=1;rounded=1;orthogonalLoop=1;jettySize=auto;html=1;fontSize=12;startSize=8;endSize=8;strokeWidth=2;exitX=0.596;exitY=-0.01;exitDx=0;exitDy=0;exitPerimeter=0;" edge="1" parent="1" source="sg6L_MZa9gXwDMddU_bD-22" target="sg6L_MZa9gXwDMddU_bD-8">
          <mxGeometry relative="1" as="geometry" />
        </mxCell>
        <mxCell id="sg6L_MZa9gXwDMddU_bD-22" value="复杂的大规模数据&lt;div&gt;(如历史流量)&lt;/div&gt;" style="rounded=1;whiteSpace=wrap;html=1;strokeWidth=2;" vertex="1" parent="1">
          <mxGeometry x="368.39" y="711" width="107.51" height="40" as="geometry" />
        </mxCell>
        <mxCell id="sg6L_MZa9gXwDMddU_bD-23" value="" style="endArrow=classic;html=1;rounded=1;fontSize=12;startSize=8;endSize=8;curved=1;strokeWidth=2;exitX=0.719;exitY=0.901;exitDx=0;exitDy=0;exitPerimeter=0;" edge="1" parent="1" source="sg6L_MZa9gXwDMddU_bD-5">
          <mxGeometry width="50" height="50" relative="1" as="geometry">
            <mxPoint x="549" y="601" as="sourcePoint" />
            <mxPoint x="549" y="641" as="targetPoint" />
          </mxGeometry>
        </mxCell>
        <mxCell id="sg6L_MZa9gXwDMddU_bD-24" value="数据分级处理" style="html=1;whiteSpace=wrap;aspect=fixed;shape=isoRectangle;rounded=1;strokeWidth=2;" vertex="1" parent="1">
          <mxGeometry x="249" y="727.25" width="100" height="60" as="geometry" />
        </mxCell>
        <mxCell id="sg6L_MZa9gXwDMddU_bD-25" value="" style="strokeWidth=2;html=1;shape=mxgraph.flowchart.annotation_2;align=left;labelPosition=right;pointerEvents=1;rounded=1;" vertex="1" parent="1">
          <mxGeometry x="349" y="717.25" width="15" height="80" as="geometry" />
        </mxCell>
        <mxCell id="sg6L_MZa9gXwDMddU_bD-26" value="" style="endArrow=classic;html=1;rounded=1;fontSize=12;startSize=8;endSize=8;curved=1;exitX=0.476;exitY=0.016;exitDx=0;exitDy=0;exitPerimeter=0;strokeWidth=2;" edge="1" parent="1" source="sg6L_MZa9gXwDMddU_bD-13">
          <mxGeometry width="50" height="50" relative="1" as="geometry">
            <mxPoint x="299" y="971" as="sourcePoint" />
            <mxPoint x="299" y="942" as="targetPoint" />
          </mxGeometry>
        </mxCell>
        <mxCell id="sg6L_MZa9gXwDMddU_bD-27" value="" style="endArrow=classic;html=1;rounded=1;fontSize=12;startSize=8;endSize=8;curved=1;entryX=0.474;entryY=0.993;entryDx=0;entryDy=0;entryPerimeter=0;strokeWidth=2;" edge="1" parent="1" target="sg6L_MZa9gXwDMddU_bD-16">
          <mxGeometry width="50" height="50" relative="1" as="geometry">
            <mxPoint x="299.01" y="921" as="sourcePoint" />
            <mxPoint x="299" y="901" as="targetPoint" />
          </mxGeometry>
        </mxCell>
        <mxCell id="sg6L_MZa9gXwDMddU_bD-28" value="" style="endArrow=classic;html=1;rounded=1;fontSize=12;startSize=8;endSize=8;curved=1;entryX=0.444;entryY=0.969;entryDx=0;entryDy=0;entryPerimeter=0;strokeWidth=2;" edge="1" parent="1" target="sg6L_MZa9gXwDMddU_bD-18">
          <mxGeometry width="50" height="50" relative="1" as="geometry">
            <mxPoint x="299.01" y="871" as="sourcePoint" />
            <mxPoint x="349.01" y="821" as="targetPoint" />
          </mxGeometry>
        </mxCell>
        <mxCell id="sg6L_MZa9gXwDMddU_bD-29" value="" style="edgeStyle=none;curved=1;rounded=1;orthogonalLoop=1;jettySize=auto;html=1;fontSize=12;startSize=8;endSize=8;entryX=0.45;entryY=-0.023;entryDx=0;entryDy=0;exitX=0.551;exitY=1.015;exitDx=0;exitDy=0;exitPerimeter=0;strokeWidth=2;entryPerimeter=0;" edge="1" parent="1" source="sg6L_MZa9gXwDMddU_bD-30" target="sg6L_MZa9gXwDMddU_bD-14">
          <mxGeometry relative="1" as="geometry">
            <mxPoint x="435.5354799999999" y="898.3287499999999" as="sourcePoint" />
            <mxPoint x="435.57000000000005" y="988.4975" as="targetPoint" />
          </mxGeometry>
        </mxCell>
        <mxCell id="sg6L_MZa9gXwDMddU_bD-30" value="本地处理实时决策" style="rounded=1;whiteSpace=wrap;html=1;strokeWidth=2;" vertex="1" parent="1">
          <mxGeometry x="368.39" y="871" width="108.12" height="33.25" as="geometry" />
        </mxCell>
        <mxCell id="sg6L_MZa9gXwDMddU_bD-31" value="全局策略优化" style="rounded=1;whiteSpace=wrap;html=1;strokeWidth=2;" vertex="1" parent="1">
          <mxGeometry x="509" y="721" width="85" height="30" as="geometry" />
        </mxCell>
        <mxCell id="sg6L_MZa9gXwDMddU_bD-32" value="" style="endArrow=classic;html=1;rounded=1;fontSize=12;startSize=8;endSize=8;curved=1;entryX=0.398;entryY=0.075;entryDx=0;entryDy=0;entryPerimeter=0;strokeWidth=2;" edge="1" parent="1">
          <mxGeometry width="50" height="50" relative="1" as="geometry">
            <mxPoint x="549.2" y="671" as="sourcePoint" />
            <mxPoint x="549" y="723.25" as="targetPoint" />
          </mxGeometry>
        </mxCell>
        <mxCell id="sg6L_MZa9gXwDMddU_bD-33" value="" style="rounded=1;whiteSpace=wrap;html=1;fillColor=none;dashed=1;strokeWidth=2;" vertex="1" parent="1">
          <mxGeometry x="109" y="699.32" width="391" height="256.62" as="geometry" />
        </mxCell>
        <mxCell id="sg6L_MZa9gXwDMddU_bD-34" style="edgeStyle=none;curved=1;rounded=1;orthogonalLoop=1;jettySize=auto;html=1;exitX=0.5;exitY=0;exitDx=0;exitDy=0;fontSize=12;startSize=8;endSize=8;strokeWidth=2;" edge="1" parent="1" source="sg6L_MZa9gXwDMddU_bD-6" target="sg6L_MZa9gXwDMddU_bD-6">
          <mxGeometry relative="1" as="geometry" />
        </mxCell>
        <mxCell id="sg6L_MZa9gXwDMddU_bD-35" value="" style="endArrow=classic;html=1;rounded=1;fontSize=12;startSize=8;endSize=8;curved=0;strokeWidth=2;entryX=1;entryY=0.5;entryDx=0;entryDy=0;" edge="1" parent="1" target="sg6L_MZa9gXwDMddU_bD-30">
          <mxGeometry width="50" height="50" relative="1" as="geometry">
            <mxPoint x="548.39" y="751" as="sourcePoint" />
            <mxPoint x="480" y="888" as="targetPoint" />
            <Array as="points">
              <mxPoint x="548.39" y="888.1099999999999" />
            </Array>
          </mxGeometry>
        </mxCell>
        <mxCell id="sg6L_MZa9gXwDMddU_bD-36" value="数据采集层" style="rounded=0;whiteSpace=wrap;html=1;dashed=1;dashPattern=8 8;" vertex="1" parent="1">
          <mxGeometry x="180" y="1290" width="80" height="30" as="geometry" />
        </mxCell>
        <mxCell id="sg6L_MZa9gXwDMddU_bD-37" value="预处理层" style="rounded=0;whiteSpace=wrap;html=1;dashed=1;dashPattern=8 8;" vertex="1" parent="1">
          <mxGeometry x="288.39" y="1290" width="80" height="30" as="geometry" />
        </mxCell>
        <mxCell id="sg6L_MZa9gXwDMddU_bD-38" value="传输层" style="rounded=0;whiteSpace=wrap;html=1;dashed=1;dashPattern=8 8;" vertex="1" parent="1">
          <mxGeometry x="398.39" y="1290" width="80" height="30" as="geometry" />
        </mxCell>
        <mxCell id="sg6L_MZa9gXwDMddU_bD-39" value="视频监控" style="rounded=0;whiteSpace=wrap;html=1;" vertex="1" parent="1">
          <mxGeometry x="168.39" y="1350" width="101.61" height="30" as="geometry" />
        </mxCell>
        <mxCell id="sg6L_MZa9gXwDMddU_bD-40" value="地磁传感器" style="rounded=0;whiteSpace=wrap;html=1;" vertex="1" parent="1">
          <mxGeometry x="168.39" y="1400" width="101.61" height="30" as="geometry" />
        </mxCell>
        <mxCell id="sg6L_MZa9gXwDMddU_bD-41" value="车联网终端" style="rounded=0;whiteSpace=wrap;html=1;" vertex="1" parent="1">
          <mxGeometry x="168.39" y="1450" width="101.61" height="30" as="geometry" />
        </mxCell>
        <mxCell id="sg6L_MZa9gXwDMddU_bD-42" value="第三方平台" style="rounded=0;whiteSpace=wrap;html=1;" vertex="1" parent="1">
          <mxGeometry x="168.39" y="1500" width="101.61" height="30" as="geometry" />
        </mxCell>
        <mxCell id="sg6L_MZa9gXwDMddU_bD-43" value="输入层" style="rounded=0;whiteSpace=wrap;html=1;fontSize=13;" vertex="1" parent="1">
          <mxGeometry x="1155" y="947.5700000000002" width="80" height="24.06" as="geometry" />
        </mxCell>
        <mxCell id="sg6L_MZa9gXwDMddU_bD-44" value="实时数据" style="rounded=0;whiteSpace=wrap;html=1;fontSize=13;" vertex="1" parent="1">
          <mxGeometry x="1034.58" y="997.25" width="70" height="30" as="geometry" />
        </mxCell>
        <mxCell id="sg6L_MZa9gXwDMddU_bD-45" value="外部因素" style="rounded=0;whiteSpace=wrap;html=1;fontSize=13;" vertex="1" parent="1">
          <mxGeometry x="1295" y="996.8199999999999" width="70" height="30" as="geometry" />
        </mxCell>
        <mxCell id="sg6L_MZa9gXwDMddU_bD-46" value="历史数据" style="rounded=0;whiteSpace=wrap;html=1;fontSize=13;" vertex="1" parent="1">
          <mxGeometry x="1165" y="997.25" width="70" height="30" as="geometry" />
        </mxCell>
        <mxCell id="sg6L_MZa9gXwDMddU_bD-47" value="&lt;div style=&quot;line-height: 150%;&quot;&gt;交通流量&lt;div&gt;车速信息&lt;/div&gt;&lt;/div&gt;" style="rounded=0;whiteSpace=wrap;html=1;dashed=1;dashPattern=8 8;strokeColor=none;fillColor=none;fontSize=13;" vertex="1" parent="1">
          <mxGeometry x="1034.58" y="1038.5" width="70" height="43.5" as="geometry" />
        </mxCell>
        <mxCell id="sg6L_MZa9gXwDMddU_bD-49" value="&lt;div style=&quot;line-height: 150%;&quot;&gt;历史流量&lt;div&gt;历史事件&lt;/div&gt;&lt;/div&gt;" style="rounded=0;whiteSpace=wrap;html=1;dashed=1;dashPattern=8 8;fillColor=none;strokeColor=none;fontSize=13;" vertex="1" parent="1">
          <mxGeometry x="1165" y="1038.5" width="70" height="43.5" as="geometry" />
        </mxCell>
        <mxCell id="sg6L_MZa9gXwDMddU_bD-50" value="&lt;div style=&quot;line-height: 150%;&quot;&gt;天气状况&lt;div&gt;道路施工&lt;/div&gt;&lt;/div&gt;" style="rounded=0;whiteSpace=wrap;html=1;dashed=1;dashPattern=8 8;fillColor=none;strokeColor=none;fontSize=13;" vertex="1" parent="1">
          <mxGeometry x="1295" y="1038.06" width="70" height="43.5" as="geometry" />
        </mxCell>
        <mxCell id="sg6L_MZa9gXwDMddU_bD-51" value="核心处理层" style="rounded=0;whiteSpace=wrap;html=1;fontSize=13;" vertex="1" parent="1">
          <mxGeometry x="1155" y="1150" width="90" height="24.06" as="geometry" />
        </mxCell>
        <mxCell id="sg6L_MZa9gXwDMddU_bD-52" value="LSTM模块" style="rounded=0;whiteSpace=wrap;html=1;fontSize=13;" vertex="1" parent="1">
          <mxGeometry x="1029.58" y="1200" width="80" height="30" as="geometry" />
        </mxCell>
        <mxCell id="sg6L_MZa9gXwDMddU_bD-54" value="&lt;div style=&quot;line-height: 150%;&quot;&gt;时序建模&lt;div&gt;长时依赖&lt;/div&gt;&lt;/div&gt;" style="rounded=0;whiteSpace=wrap;html=1;strokeColor=none;fillColor=none;fontSize=13;" vertex="1" parent="1">
          <mxGeometry x="1034.1599999999999" y="1230" width="70" height="55" as="geometry" />
        </mxCell>
        <mxCell id="sg6L_MZa9gXwDMddU_bD-56" value="GNN模块" style="rounded=0;whiteSpace=wrap;html=1;fontSize=13;" vertex="1" parent="1">
          <mxGeometry x="1160" y="1200" width="80" height="30" as="geometry" />
        </mxCell>
        <mxCell id="sg6L_MZa9gXwDMddU_bD-57" value="&lt;div style=&quot;line-height: 150%;&quot;&gt;空间建模&lt;div&gt;图结构学习&lt;/div&gt;&lt;/div&gt;" style="rounded=0;whiteSpace=wrap;html=1;strokeColor=none;fillColor=none;fontSize=13;" vertex="1" parent="1">
          <mxGeometry x="1165" y="1230" width="70" height="55" as="geometry" />
        </mxCell>
        <mxCell id="sg6L_MZa9gXwDMddU_bD-58" value="注意力机制" style="rounded=0;whiteSpace=wrap;html=1;fontSize=13;" vertex="1" parent="1">
          <mxGeometry x="1290" y="1200" width="80" height="30" as="geometry" />
        </mxCell>
        <mxCell id="sg6L_MZa9gXwDMddU_bD-59" value="&lt;div style=&quot;line-height: 150%;&quot;&gt;特征加权&lt;div&gt;动态调整&lt;/div&gt;&lt;/div&gt;" style="rounded=0;whiteSpace=wrap;html=1;strokeColor=none;fillColor=none;fontSize=13;" vertex="1" parent="1">
          <mxGeometry x="1295" y="1230" width="70" height="60" as="geometry" />
        </mxCell>
        <mxCell id="sg6L_MZa9gXwDMddU_bD-60" value="输出层" style="rounded=0;whiteSpace=wrap;html=1;fontSize=13;" vertex="1" parent="1">
          <mxGeometry x="1155" y="1340" width="90" height="24.06" as="geometry" />
        </mxCell>
        <mxCell id="sg6L_MZa9gXwDMddU_bD-61" value="短期预测" style="rounded=0;whiteSpace=wrap;html=1;fontSize=13;" vertex="1" parent="1">
          <mxGeometry x="1028.74" y="1390" width="80" height="30" as="geometry" />
        </mxCell>
        <mxCell id="sg6L_MZa9gXwDMddU_bD-62" value="&lt;div style=&quot;line-height: 150%;&quot;&gt;15分钟预测&lt;div&gt;5分钟更新&lt;/div&gt;&lt;/div&gt;" style="rounded=0;whiteSpace=wrap;html=1;fillColor=none;strokeColor=none;fontSize=13;" vertex="1" parent="1">
          <mxGeometry x="1010" y="1420" width="120" height="60" as="geometry" />
        </mxCell>
        <mxCell id="sg6L_MZa9gXwDMddU_bD-63" value="中期预测" style="rounded=0;whiteSpace=wrap;html=1;fontSize=13;" vertex="1" parent="1">
          <mxGeometry x="1160" y="1390" width="80" height="30" as="geometry" />
        </mxCell>
        <mxCell id="sg6L_MZa9gXwDMddU_bD-64" value="&lt;div style=&quot;line-height: 150%;&quot;&gt;1小时预测&lt;div&gt;15分钟更新&lt;/div&gt;&lt;/div&gt;" style="rounded=0;whiteSpace=wrap;html=1;fillColor=none;strokeColor=none;fontSize=13;" vertex="1" parent="1">
          <mxGeometry x="1140" y="1420" width="120" height="60" as="geometry" />
        </mxCell>
        <mxCell id="sg6L_MZa9gXwDMddU_bD-65" value="长期预测" style="rounded=0;whiteSpace=wrap;html=1;fontSize=13;" vertex="1" parent="1">
          <mxGeometry x="1290" y="1390" width="80" height="30" as="geometry" />
        </mxCell>
        <mxCell id="sg6L_MZa9gXwDMddU_bD-66" value="&lt;div style=&quot;line-height: 150%;&quot;&gt;24小时预测&lt;div&gt;1小时更新&lt;/div&gt;&lt;/div&gt;" style="rounded=0;whiteSpace=wrap;html=1;fillColor=none;strokeColor=none;fontSize=13;" vertex="1" parent="1">
          <mxGeometry x="1270" y="1420" width="120" height="60" as="geometry" />
        </mxCell>
        <mxCell id="sg6L_MZa9gXwDMddU_bD-69" value="" style="rounded=0;whiteSpace=wrap;html=1;fillColor=none;dashed=1;dashPattern=8 8;fontSize=13;" vertex="1" parent="1">
          <mxGeometry x="1019.58" y="986.44" width="100" height="100" as="geometry" />
        </mxCell>
        <mxCell id="sg6L_MZa9gXwDMddU_bD-70" style="edgeStyle=none;curved=1;rounded=0;orthogonalLoop=1;jettySize=auto;html=1;entryX=1;entryY=0.5;entryDx=0;entryDy=0;fontSize=13;startSize=8;endSize=8;" edge="1" parent="1" source="sg6L_MZa9gXwDMddU_bD-69" target="sg6L_MZa9gXwDMddU_bD-69">
          <mxGeometry relative="1" as="geometry" />
        </mxCell>
        <mxCell id="sg6L_MZa9gXwDMddU_bD-71" value="" style="rounded=0;whiteSpace=wrap;html=1;fillColor=none;dashed=1;dashPattern=8 8;fontSize=13;" vertex="1" parent="1">
          <mxGeometry x="1150" y="986.44" width="100" height="100" as="geometry" />
        </mxCell>
        <mxCell id="sg6L_MZa9gXwDMddU_bD-72" value="" style="rounded=0;whiteSpace=wrap;html=1;fillColor=none;dashed=1;dashPattern=8 8;fontSize=13;" vertex="1" parent="1">
          <mxGeometry x="1280" y="986" width="100" height="100" as="geometry" />
        </mxCell>
        <mxCell id="sg6L_MZa9gXwDMddU_bD-76" value="" style="rounded=0;whiteSpace=wrap;html=1;fillColor=none;dashed=1;dashPattern=8 8;fontSize=13;" vertex="1" parent="1">
          <mxGeometry x="1019.16" y="1190" width="100" height="90" as="geometry" />
        </mxCell>
        <mxCell id="sg6L_MZa9gXwDMddU_bD-77" value="" style="rounded=0;whiteSpace=wrap;html=1;fillColor=none;dashed=1;dashPattern=8 8;fontSize=13;" vertex="1" parent="1">
          <mxGeometry x="1150" y="1190" width="100" height="90" as="geometry" />
        </mxCell>
        <mxCell id="sg6L_MZa9gXwDMddU_bD-78" value="" style="rounded=0;whiteSpace=wrap;html=1;fillColor=none;dashed=1;dashPattern=8 8;fontSize=13;" vertex="1" parent="1">
          <mxGeometry x="1280" y="1190" width="100" height="90" as="geometry" />
        </mxCell>
        <mxCell id="sg6L_MZa9gXwDMddU_bD-79" value="" style="rounded=0;whiteSpace=wrap;html=1;fillColor=none;fontSize=13;" vertex="1" parent="1">
          <mxGeometry x="1010" y="936.82" width="380" height="163.18" as="geometry" />
        </mxCell>
        <mxCell id="sg6L_MZa9gXwDMddU_bD-80" value="" style="rounded=0;whiteSpace=wrap;html=1;fillColor=none;fontSize=13;" vertex="1" parent="1">
          <mxGeometry x="1010" y="1140" width="380" height="150" as="geometry" />
        </mxCell>
        <mxCell id="sg6L_MZa9gXwDMddU_bD-81" value="" style="rounded=0;whiteSpace=wrap;html=1;fillColor=none;dashed=1;dashPattern=8 8;fontSize=13;" vertex="1" parent="1">
          <mxGeometry x="1020" y="1380" width="100" height="90" as="geometry" />
        </mxCell>
        <mxCell id="sg6L_MZa9gXwDMddU_bD-82" value="" style="rounded=0;whiteSpace=wrap;html=1;fillColor=none;dashed=1;dashPattern=8 8;fontSize=13;" vertex="1" parent="1">
          <mxGeometry x="1150" y="1380" width="100" height="90" as="geometry" />
        </mxCell>
        <mxCell id="sg6L_MZa9gXwDMddU_bD-83" value="" style="rounded=0;whiteSpace=wrap;html=1;fillColor=none;dashed=1;dashPattern=8 8;fontSize=13;" vertex="1" parent="1">
          <mxGeometry x="1280" y="1380" width="100" height="90" as="geometry" />
        </mxCell>
        <mxCell id="sg6L_MZa9gXwDMddU_bD-85" value="" style="rounded=0;whiteSpace=wrap;html=1;fillColor=none;fontSize=13;" vertex="1" parent="1">
          <mxGeometry x="1010" y="1330" width="380" height="150" as="geometry" />
        </mxCell>
        <mxCell id="sg6L_MZa9gXwDMddU_bD-89" value="" style="shape=flexArrow;endArrow=classic;html=1;rounded=0;fontSize=13;startSize=8;endSize=5.016666666666667;curved=1;endWidth=16;" edge="1" parent="1">
          <mxGeometry width="50" height="50" relative="1" as="geometry">
            <mxPoint x="1199.71" y="1100" as="sourcePoint" />
            <mxPoint x="1199.71" y="1140" as="targetPoint" />
          </mxGeometry>
        </mxCell>
        <mxCell id="sg6L_MZa9gXwDMddU_bD-90" value="" style="shape=flexArrow;endArrow=classic;html=1;rounded=0;fontSize=13;startSize=8;endSize=5.016666666666667;curved=1;endWidth=16;" edge="1" parent="1">
          <mxGeometry width="50" height="50" relative="1" as="geometry">
            <mxPoint x="1199.71" y="1290" as="sourcePoint" />
            <mxPoint x="1199.71" y="1330" as="targetPoint" />
          </mxGeometry>
        </mxCell>
      </root>
    </mxGraphModel>
  </diagram>
</mxfile>
